Coordinates
version=1
nRows=43
nColumns=12
inDegrees=yes

Units are S.I. units (second, meters, Newtons, ...)
Angles are in degrees

endheader
time	SC_y	SC_z	SC_x	AC_y	AC_z	AC_x	GH_y	GH_z	GH_yy	EL_x	PS_y
       0.0              -55.77          4.605          17.67          42.49         -1.911          12.07         -70.64          59.18          8.186           88.0          126.3
   0.03182              -55.77          4.608          17.68          42.49         -1.912          12.06         -70.61          59.18          8.198          87.99          126.3
   0.06365              -55.76          4.611          17.69          42.49         -1.914          12.06         -70.58          59.17          8.211          87.98          126.3
   0.09547              -55.76          4.614          17.69          42.49         -1.916          12.05         -70.56          59.16          8.225          87.97          126.3
    0.1273              -55.75          4.617           17.7          42.48         -1.918          12.05         -70.52          59.16           8.24          87.95          126.2
    0.1591              -55.74          4.621          17.71          42.48          -1.92          12.04         -70.49          59.15          8.256          87.94          126.2
    0.1909              -55.74          4.625          17.72          42.48         -1.922          12.04         -70.46          59.14          8.273          87.93          126.2
    0.2228              -55.73          4.629          17.73          42.48         -1.924          12.03         -70.42          59.13          8.292          87.91          126.2
    0.2546              -55.72          4.634          17.74          42.47         -1.927          12.02         -70.38          59.12          8.311           87.9          126.2
    0.2864              -55.72          4.638          17.75          42.47          -1.93          12.02         -70.33          59.11          8.332          87.88          126.1
    0.3182              -55.71          4.644          17.76          42.47         -1.933          12.01         -70.29           59.1          8.354          87.86          126.1
    0.3501               -55.7          4.649          17.77          42.46         -1.936           12.0         -70.24          59.09          8.379          87.84          126.1
    0.3819              -55.69          4.655          17.79          42.46         -1.939          11.99         -70.18          59.07          8.405          87.82          126.1
    0.4137              -55.68          4.662           17.8          42.46         -1.943          11.98         -70.12          59.06          8.433           87.8          126.0
    0.4455              -55.67          4.669          17.82          42.45         -1.947          11.97         -70.06          59.04          8.463          87.78          126.0
    0.4773              -55.65          4.676          17.83          42.45         -1.951          11.96         -69.99          59.03          8.496          87.75          125.9
    0.5092              -55.64          4.685          17.85          42.44         -1.956          11.95         -69.92          59.01          8.532          87.72          125.9
     0.541              -55.63          4.694          17.87          42.44         -1.961          11.94         -69.83          58.99          8.571          87.69          125.9
    0.5728              -55.61          4.703           17.9          42.43         -1.967          11.92         -69.75          58.97          8.614          87.66          125.8
    0.6046              -55.59          4.714          17.92          42.43         -1.973          11.91         -69.65          58.94          8.661          87.62          125.8
    0.6365              -55.57          4.726          17.95          42.42         -1.979          11.89         -69.54          58.92          8.712          87.58          125.7
    0.6683              -55.55          4.739          17.98          42.41         -1.987          11.87         -69.42          58.89          8.769          87.53          125.6
    0.7001              -55.53          4.753          18.01           42.4         -1.995          11.85         -69.29          58.86          8.831          87.48          125.6
    0.7319               -55.5          4.769          18.05          42.39         -2.004          11.83         -69.15          58.82            8.9          87.43          125.5
    0.7637              -55.47          4.787          18.09          42.38         -2.014           11.8         -68.99          58.78          8.977          87.37          125.4
    0.7956              -55.44          4.807          18.13          42.37         -2.025          11.77         -68.81          58.74          9.063           87.3          125.3
    0.8274              -55.41          4.829          18.18          42.35         -2.038          11.74         -68.61          58.69          9.159          87.22          125.2
    0.8592              -55.37          4.854          18.24          42.34         -2.052          11.71         -68.39          58.63          9.267          87.13          125.1
     0.891              -55.32          4.882           18.3          42.32         -2.068          11.67         -68.13          58.57          9.389          87.04          124.9
    0.9229              -55.27          4.914          18.38           42.3         -2.086          11.62         -67.84           58.5          9.528          86.92          124.8
    0.9547              -55.21           4.95          18.46          42.28         -2.107          11.57         -67.51          58.42          9.686           86.8          124.6
    0.9865              -55.14          4.992          18.56          42.26          -2.13          11.51         -67.14          58.33          9.868          86.65          124.4
     1.018              -55.06           5.04          18.67          42.23         -2.158          11.44          -66.7          58.22          10.08          86.48          124.2
      1.05              -54.97          5.097          18.79          42.19          -2.19          11.36         -66.19          58.09          10.32          86.29          123.9
     1.082              -54.86          5.162          18.94          42.15         -2.227          11.26          -65.6          57.95          10.61          86.06          123.6
     1.114              -54.74           5.24          19.12           42.1         -2.271          11.15          -64.9          57.78          10.94          85.79          123.2
     1.146              -54.59          5.332          19.33          42.05         -2.323          11.02         -64.07          57.57          11.34          85.47          122.7
     1.177              -54.41          5.442          19.58          41.98         -2.386          10.86         -63.07          57.33          11.82          85.09          122.2
     1.209              -54.19          5.575          19.89           41.9         -2.461          10.66         -61.86          57.03           12.4          84.63          121.5
     1.241              -53.93          5.738          20.26           41.8         -2.554          10.43         -60.39          56.67          13.11          84.06          120.7
     1.273               -53.6          5.939          20.72          41.68         -2.668          10.14         -58.57          56.22          13.98          83.36          119.7
     1.305              -53.19           6.19          21.29          41.52          -2.81          9.774          -56.3          55.67          15.07          82.49          118.5
     1.337              -52.67          6.506          22.01          41.33         -2.989          9.318         -53.45          54.96          16.44          81.39          116.9
